<?xml version="1.0" encoding="utf-8"?>
<!-- Generator: Adobe Illustrator 20.0.0, SVG Export Plug-In . SVG Version: 6.00 Build 0)  -->
<svg preserveAspectRatio="xMidYMid slice" width="365px" height="426px" version="1.1" id="Layer_1" xmlns="http://www.w3.org/2000/svg" xmlns:xlink="http://www.w3.org/1999/xlink" x="0px" y="0px"
	 viewBox="0 0 192 224.6" style="enable-background:new 0 0 192 224.6;" xml:space="preserve">
<style type="text/css">
	.st0{opacity:0.21;}
	.st1{fill:#E0B8A4;}
	.st2{fill:#10723A;}
	.st3{fill:#19100B;}
	.st4{fill:#331B13;}
	.st5{fill:#210D0E;}
	.st6{fill:#C9A188;}
	.st7{fill:#0E4724;}
	.st8{fill:#C39581;}
	.st9{fill:#AD7B6A;}
	.st10{fill:#0B4F28;}
	.st11{opacity:0.56;fill:#846C63;}
	.st12{fill:#FFFFFF;}
	.st13{fill:#9B6D59;}
	.st14{fill:#BC8161;}
	.st15{fill:#DCDBDB;}
	.st16{fill:#C19272;}
	.st17{fill:#DBE4F0;}
	.st18{fill:none;stroke:#EC008C;stroke-width:0.2163;stroke-miterlimit:10;}
	.st19{fill:#75B5E3;}
	.st20{fill:#E6E7E8;}
	.st21{fill:#AE242F;}
</style>
<path id="XMLID_19204_" class="st0" d="M117.3,197c-0.6,0,24.8,4.2,38.3,5.5c2.6,0.3,5.2,0.5,7.5,1.5c2,0.9,3.7,2.2,5.5,3.4
	c6.8,4.3,15.4,5.7,21.3,11.2c-1.3,0.9-2.6,1.8-4,2.5c-5.4,2.6-11.8,1.5-17.7,0.3c-8.7-1.7-17.5-3.4-26.2-5.1
	c-11.9-2.3-23.9-4.7-35.8-7c-14.5-2.8-37.4-7.5-51.9-10.6l10.7-5.6l10.7-4.1l8.5,3.8"/>
<path id="XMLID_27972_" class="st1" d="M23.4,69.8v-2.7c0.7-0.7,1.5-1.4,2.2-2.2c0.4-0.4,0.8-0.8,1.2-1.2c0.8-0.9,1.8-2.3,2.1-3.5
	c0-0.2,0.1-0.4,0-0.5c-0.2-0.9-1.7-1.1-2.4-1.1c-1.3,0-2.6,0.5-3.7,1.1c-0.2,0.1-1.2,0.8-1.3,0.7c-0.2-0.1-0.6-1.3-0.7-1.6
	c-0.4-1.1-0.8-2.2-1.1-3.3c-0.6-2.1-0.9-4.2-1.1-6.4c-0.1-1.3-0.1-3.7-1.4-4.5c-1.7-1-2.3,2.2-2.4,3.2c0,0.1-0.3,1.3-0.4,1.3
	c0,0-0.4-0.6-0.4-0.6c-0.3-0.2-0.3-0.6-0.3-0.9c-0.2-0.6-1.2-1.7-1.8-1.6c-0.4,0-1.1,0.8-1.4,1.1c-0.1,0.1-0.1,0.2-0.1,0.2
	c-0.2,0.8-0.3,1.6-0.4,2.4c0.2-2-2.3-3.9-3.9-2.4c-0.3,0.3-0.4,0.6-0.5,1C5.3,49,5.1,49.7,5,50.4c-1-0.5-1.8-1-2.7,0
	c-1.6,2-0.8,4.4,0.2,6.4c1.1,2.3,1,4.6,2,7.6c1.3,3.7-0.6,8.3,2.9,11L8,76.6c0,0-0.1,1.4-0.4,1.8c-0.3,0.3,2.5,2.7,2.5,2.7l2.1,5
	l8.5-1.3l5.3-2.5l-1.6-9.3L23.4,69.8z"/>
<polygon id="XMLID_27971_" class="st2" points="92.7,127.4 96.6,125.9 100.7,125.2 102.8,128.1 107.2,132.8 107.9,136.7 
	100.5,138.1 94.1,133.1 "/>
<path id="XMLID_27968_" class="st3" d="M37.3,187.7c-0.9,0.9-2.2,1.9-2,3.3c0.2,1.5,1.7,3.5,2.6,4.6c1.4,1.7,3.1,2.6,5.1,3.3
	c5.6,1.8,11.8,3.5,17.6,2.5c2.5-0.4,4.8-1.4,7-2.6c1.1-0.6,2.1-1.2,3.1-1.9c0.8-0.6,2-1,2.7-1.9c0.7-0.8,1.1-1.9,1.6-2.8
	c-0.4,0.7,2.5,5.1,3,5.7c2.4,3.2,6.7,4.7,10.4,5.2c5,0.6,10.4,0.1,15.5,0.1c3.7,0,7.8-0.7,10.7-3.4c1.9-1.8,2.8-4.5,3-7.1
	c0.1-1.3,0-2.5-0.3-3.7c-0.2-0.8-1-3.4-1.8-3.7l-8.5-3l-23.4-1.8l-6.7-4.1L65.7,176l-18.4,6.9C47.3,182.9,37.3,187.7,37.3,187.7z"/>
<path id="XMLID_27896_" class="st4" d="M46.7,167.6c0,0-4.8,2.6-4.8,2.6c-1.7,0.9-3.2,3.2-4.4,4.7c-2.7,3.1-1.6,7.8-1.7,11.6
	c0,2.5,0.4,4.2,2.6,5.7c3.6,2.3,6.7,4.2,11,4.4c3.1,0.2,6.4,0.5,9.6,0.2c4.5-0.4,8.9-2.4,11.9-5.8c3.6-4.1,3.7-9.5,3.5-14.7
	c0.1,2.5,1.1,5.2,1.5,7.7c0.4,2.5,0.1,5.2,0.8,7.7c0.9,3.1,3.5,4.4,6,6.1c0.5,0.3,1,0.6,1.5,0.8c2.4,0.8,5.5,0.7,8,0.9
	c3.1,0.2,6.3,0.3,9.4,0.2c4.5-0.1,13.7-4.1,13.8-9.4c0-1.8,0-3.6-0.1-5.4c0-0.4-0.1-0.8-0.1-1.2c-0.7-3.3-3.7-8-6.3-10.3l-2.7-2.5
	l-1.5-1.2l-12.8-2.2l-15.1-3.2l-15.4,1.5L46.7,167.6z"/>
<path id="XMLID_27893_" class="st5" d="M43.7,146.8c0,2.4-0.3,4.9-0.1,7.3c0.1,1.4,0.8,2.9,1.1,4.3c0.6,2.2-1.2,2.2-1.4,4.6
	c-0.1,0.8,0.4,6.5,1.8,7c7.7,2.3,15.8,3.3,23.7,4.5c1.7,0,3.3,0,5,0c-0.1-2.1,2.5-3.4,2.5-5.2c0,1.4,0,2.4,0.4,3.7
	c0.1,0.2,0.1,0.4,0.3,0.5c0.1,0.1,0.3,0.2,0.5,0.2c4.4,0.9,9,1.1,13.5,1c2.3,0,4.7-0.1,7-0.2c1.8-0.1,3.5,0.4,5.2-0.4
	c2.5-1.2,4-3.3,3.3-6.1c-0.3-1.2-1.6-2.7-1.6-3.9c0-2,1.5-4,2.1-5.9l1.1-3.9v-1.5v-4.8l-14.1,3.2l-14.5-6.9l-3.2-6.7l-8.7-3
	l-3.2,4.1l-11.9,5.4L43.7,146.8z"/>
<path id="XMLID_27888_" class="st6" d="M107.3,56.8l2.6-2.2l1.3-1.5c0,0,4.9-1.2,5.1,4.7c0,0-0.3,3.4-1.3,4.7c0,0-1.7,2.5-1.9,5.4
	c0,0,0.2,8.7-3.3,8.3l-2.5-4.2v-7.3V56.8z"/>
<path id="XMLID_27836_" class="st6" d="M47.9,53.6l-2.6-2.2L44,49.9c0,0-4.9-1.2-5.1,4.7c0,0,0.3,3.4,1.3,4.7c0,0,1.7,2.5,1.9,5.4
	c0,0-0.2,8.7,3.3,8.3l2.5-4.2v-7.3V53.6z"/>
<path id="XMLID_27832_" class="st2" d="M108.1,81.5l3.1-2.5l2.9,2.5c3.2,4.3,6.8,8.2,9.9,12.5c0,0,1.1,1.7,1.1,1.7
	c2.5,4,1.5,9.3,1.5,13.8c0,1-1.5,3.2-1.9,4.2c-0.9,2.4-1.8,4.7-2.6,7.1c-0.6,1.7-1.3,3.4-2.3,4.8c-0.6,0.8-1.3,1.4-2.1,2
	c-0.4,0.3-0.8,0.5-1.2,0.7c-0.3,0.2-0.9,0.6-1.2,0.6c-0.1-1.4,0.2-2.9,0.3-4.3c0.1-1.4,0.3-2.9,0.3-4.3c0-0.4-0.1-0.8-0.3-1.1
	c-0.1-0.2-0.3-0.3-0.5-0.4c-0.9-0.6-1.7-1.2-2.5-1.9c-0.5-0.5-1.1-0.9-1.8-1.2c-0.7-0.4-1.5-0.5-2.3-0.8c-0.7-0.2-1.5-0.5-2.2-0.7
	c-1-0.3-1.4-0.1-2.3,0.6c-0.8,0.6-1.5,1.8-2.2,2.5c-0.3,0.3-0.7,0.5-1.1,0.8c-1.3,0.9-2.2,1.9-3.3,3c-0.4,0.4-1.3,0.3-1.8,0.7
	c-0.4,0.4-0.6,1.1-1.1,1.4c-0.4,0.3-0.6,0.4-0.8,0.9c-0.5,1-0.3,1.8,0.3,2.6c1.5,1.8,3.1,3.5,4.6,5.4c0.6,0.8,1.1,1.6,1.6,2.4
	c0.3,0.4,0.4,0.9,0.8,1.3c0.4,0.4,0.9,0.5,1.4,0.6c0.6,0.1,1.6,0.5,2.2,0.3c0.7-0.2,0.9-0.4,1.5-0.7c1.8-1,2.2-1.4,3.4-2.1
	c1.5-0.9,2.5,6.5,2.5,7.2c0,1.9-0.5,5.2-1.8,6.7c-1.8,2-3,4.1-5.4,5.4c-2.4,1.2-5.1,1.6-7.6,2.2c-5.9,1.3-11.9,0.2-17.8,0.2
	c-0.5,0-0.9,0-1.3-0.2c-2.5-1.2-0.9-4.6-1.3-6.5c-0.1-0.4-0.3-0.8-0.5-1.2c-1.9-3-3.5-5.4-3.5-9.1c0,0-1.1-0.9-1.1-0.9
	c1.2,1,0.2,4.2,0,5.5c-0.3,1.4-0.5,4.1-1.1,5.4l-1.1,2.4l-1.1,1.7c0,0,0,1.7,0,1.7c0,0.9-3.9,1.3-4.4,1.3c-4.4,0-8.8-0.3-13-1.7
	c-2.7-0.9-5.2-2.4-7.6-3.9c-2.5-1.5-3.4-2.7-4.5-5.4c-0.6-1.4-1-2.8-0.7-4.3c0.2-1.4,0.8-1.7,1.7-2.5c0.6-0.6,0.9-1.1,1-1.9
	c0.3-1.9-0.6-3.8,0.5-5.6c2.1-3.8,4.5-8.1,3.1-12.5c-1-3.2-1.7-6.3-2.1-9.6c0,0-0.6-2-0.6-2c-4.4,0-8.9,0.7-13.3,0.2
	c-3.8-0.4-8.8-4.2-11.5-6.8c-2-1.9-4.5-3.2-6.4-5.2c-1.8-1.9-1.4-4.1-1.4-6.5l-0.6-4l-1.7-5.1c0,0,2.2,0.3,2.2,0.3
	c0,0,1.5,2.1,1.6,2.4c1,1.6,2.5,2.5,4.5,2.8c1.3,0.2,2.7-0.1,3.9-0.6c1.5-0.7,2.9-1.4,3.4-3c0.4-1.2,0.4-2.6,0.4-3.9
	c0-0.6,1.4-5.9,0.9-5.9c0,0,0-1.9,0-1.9c1.6,0,2.3,5,2.9,6c1.1,1.7,2.8,3.6,4.7,4.5l3.5,1.5l3.5,1.1H41l3.1-0.2l2.4,6.7l35.7,14.1
	l16.4-7.6L108.1,81.5z"/>
<path id="XMLID_27761_" class="st7" d="M47.9,131.6c0,0,10.4,6.5,17.5,5.7l-3.3,12.3c0,0-15.6,5.8-18.9-7.8L47.9,131.6z"/>
<path id="XMLID_27758_" class="st7" d="M84.8,139c0,0,12.3,0,17.9-4.5l3.7,12.2c0,0-10.1,13.2-20.1,3.4L84.8,139z"/>
<path id="XMLID_27688_" class="st1" d="M104.7,113.1c-0.8,0.3-1,1-1.3,1.7c-1,1.8-2.7,2.8-4.2,4.1c-0.9,0.8-1.7,1.6-2.6,2.4
	c-1.2,0.9-3.6,1.9-3.9,3.6c-0.1,0.4,0,0.8,0.2,1.1c0.3,0.7,0.9,1.3,1.7,1.3c0.3,0,0.5-0.1,0.7-0.2c0.8-0.3,1.7-0.6,2.5-0.9
	c-0.5,0.2-1.1,0.9-1.5,1.2c-0.2,0.2-0.4,0.3-0.6,0.5c-0.8,0.7-0.6,2.2,0.3,2.6c0.3,0.2,0.7,0.3,1,0.4c0.5,0.1,0.8-0.4,1.1-0.7
	c0.4-0.3,1-0.7,1.6-0.8c0,0-0.5,0.8-0.6,0.9c-0.3,0.4-0.6,0.8-1,1.2c-0.4,0.4-0.3,1-0.1,1.5c0.2,0.6,0.6,1.3,1.2,1.4
	c0.8,0.2,1.7-0.4,2.4-0.8c0.2-0.1,1-0.6,0.7,0l0.4-0.1l-0.4,0.1c-0.2,0.3-0.4,0.6-0.6,0.9c-0.9,1.3,0.7,2,1.8,2.1
	c1.1,0.1,2-0.5,2.9-1c1.2-0.7,2.6-1.3,3.6-2.3c1.1-0.9,2.1-2,3-3.1c0.5-0.6,1-1.1,1.5-1.7c0.2-0.3,0.5-0.5,0.7-0.8
	c0.2-0.2,0.7-0.6,0.8-0.8l2.2-9.9c-0.7-0.8-1.4-1.5-2.1-2.3c-0.8-0.9-2.1-1.3-3.3-1.5c-0.5-0.1-1.3-0.6-1.8-0.4
	c-1.5,0.4-2.9-0.4-4.4-0.2C106.2,112.8,105.5,112.8,104.7,113.1C104.8,113.1,104.8,113.1,104.7,113.1z"/>
<path id="XMLID_27687_" class="st8" d="M5.1,50.3c0.9,3.4,1.8,6.7,2.7,10.1"/>
<path id="XMLID_27686_" class="st8" d="M9.8,49.5c0.6,0.9,0.6,2.1,0.7,3.2c0.1,0.5,0.2,1,0.4,1.6c0.4,1.6,0.9,3.2,1.3,4.8"/>
<path id="XMLID_27685_" class="st8" d="M14.5,49.2c0.7,2.2,0.4,4.6,1,6.8c0.2,0.6,0.4,1.2,0.6,1.9c0.1,0.6,0.2,1.3,0.1,1.9"/>
<path id="XMLID_27684_" class="st8" d="M4.9,50.4c0.5,0.9,0.8,1.9,0.9,3c0,0.4,0,0.9,0.1,1.3c0.1,0.5,0.3,0.9,0.5,1.3
	c1,2.3,1.5,4.8,1.9,7.2"/>
<path id="XMLID_27682_" class="st8" d="M10,50.2c0.5,1,0.4,2.2,0.7,3.3c0.1,0.6,0.4,1.2,0.6,1.8c0.6,1.7,1.1,3.6,1.3,5.4
	c0.1,1,0.2,2,0.8,2.8c-0.1,0-0.2,0-0.3,0"/>
<path id="XMLID_27680_" class="st8" d="M14.7,49.4c0.2,1.2,0.3,2.3,0.4,3.5c0,0.7,0,1.3,0.2,2c0.2,0.8,0.6,1.5,0.8,2.2
	c0.6,1.6,0.6,3.3,0.7,5c-0.1,0-0.2,0.1-0.3,0.1"/>
<path id="XMLID_27606_" class="st9" d="M97.2,126.4c0.3,0,0.6-0.1,0.8-0.3c0.3-0.2,0.7-0.4,1-0.7c0.2-0.1,0.3-0.2,0.5-0.4
	c0.1-0.2,0.2-0.4,0.4-0.6c0.5-0.9,1.1-1.6,1.9-2.1c0.2-0.2,0.5-0.3,0.6-0.6"/>
<path id="XMLID_27605_" class="st9" d="M99.5,129.6c2.6-1.9,5.2-3.8,7.7-5.7"/>
<path id="XMLID_27604_" class="st9" d="M102.5,133.4c0.4-0.3,0.8-0.5,1.2-0.8c0.4-0.3,0.8-0.5,1.2-0.8c0.7-0.6,1.2-1.3,1.9-2
	c1.4-1.5,3.4-2.4,4.8-3.9"/>
<path id="XMLID_27603_" class="st10" d="M104.7,112.8c0,0,12,3,10.6,15.3l0,0.9c0,0,9.1-5.1,3.7-12.8
	C119,116.2,116.1,110.7,104.7,112.8z"/>
<path id="XMLID_27598_" class="st11" d="M105.6,112.9c0,0,10.2,3.9,8.9,15.3l0.8,0.8c0,0,6-3.8,2.7-11.9
	C118.1,117.1,116.6,113.4,105.6,112.9z"/>
<path id="XMLID_27532_" class="st10" d="M23.8,68.6c0,0-2.6,11.8-15.9,9.8l-1,0c0,0,5.1,10.1,13.7,4.6
	C20.7,82.9,25.6,81.1,23.8,68.6z"/>
<path id="beard_1_" class="st12" d="M107.3,56.8v0.6l1,2.2v1.2l-0.5,2.7c0,2.3-0.1,4.4,0.3,6.6c0.2,1,0.1,2,0.5,2.9
	c0.3,0.5,0.7,1.1,0.9,1.7c0.3,0.9-0.1,1.6,0.5,2.4c0.4,0.5,1.2,0.9,1.2,1.6c-0.1,1-0.5,2.1-0.6,3.2c0,0.6-0.2,1.4-0.1,2l0.6,5.9
	l-1.2,4.2c0,0-2.7,13.7-9.5,17.4c0,0-10.1,9.1-11.7,11.4l-3,2.3l-1.3,1.2l-2.3,1.4c0,0-6.8,10.2-16.3,2.6c-0.8-0.7-1.5-1.5-2.4-2.1
	c-1.3-0.9-2.9-2.3-4.3-3c-0.7-0.3-1.4-0.3-2.1-0.6c-1.8-0.6-1.2-2.1-2.1-3.3c-0.5-0.7-1-1.3-1.5-2c0,0-11.8-16.7-12.5-27.3
	c-0.1-1.4,0.3-2.8,0.6-4.2c0.3-1.5,0-2.7,0-4.1c0-1.5,0.8-2.9,1.5-4.3c0.7-1.4,1.3-2.8,1.7-4.3c0.4-1.4,0.3-2.7,0.3-4.1
	c0-1.8,0.2-3.6,0.7-5.3L46,64c0.3-1,0.6-2,0.8-3c0.1-0.8-0.1-1.6,0.1-2.4l0.6-2.7l0.6-2.5l2.5-0.9l-0.1,1.3l0.8,1.4l-0.1,3.1
	l-0.9,1.7l-0.4,2.1l-0.8,1.9v2.5l0.5,9.2l0.4,2l1.3,3.7l0.8,1.7l0.8,1.5l2,2l0.7,1l2,0.9l3.6,0.7l2.4-0.2l3.5-1.4l2.8-0.2l1.3,1.5
	l3.4,0.4l1.8-0.9l3.7-0.1l3.2,0.8l4.6,1.7l2.5-0.6l1.7-1.7l4-1.8l2.9-3l1-0.8l1.1-1.9l1-2.7l1.4-4.2l0.1-4l-0.6-4.3l0.4-1.2l0.4-1.8
	v-1.8l-0.5-1.8l0.7-2.5H107.3z"/>
<path id="face_1_" class="st6" d="M50.5,52.6c0-0.5,0-0.9,0.2-1.1c0.5-0.7,3.6-1.1,4.4-1.3c6.8-1.9,13.6-3.7,20.7-4.2
	c8.6-0.6,17.6,0.9,24.7,5.8c2,1.4,4,3.3,4.2,5.7c0.2,1.6-0.5,3.2-0.9,4.8c-0.9,3.9-0.1,7.9-0.6,11.8c-0.7,5.6-4,10.7-8.6,14
	c-3.6,2.6-7,3.8-11.3,3.2c-1.1-0.2-2.8-2.3-4-2.3c-2.8-0.2-5.7,2.1-8.3,0.3c-0.4-0.3-0.6-0.9-1-1.1c-0.6-0.4-1.5-0.2-2.2,0
	c-3.5,0.9-7.2,2.1-10.6,0.7c-3.1-1.3-5-4.4-6.2-7.5c-1.9-5.1-2.6-10.7-1.8-16c0.4-3.1,1.3-6.2,1.5-9.4
	C50.8,55.1,50.6,53.6,50.5,52.6z"/>
<path id="XMLID_27529_" class="st13" d="M73.3,82.5l2.4,1.1l3.4,0.5l1.2-1.1c0,0-1.6-1.5-1.7-1.6c-0.1-0.1-2.3-1-2.3-1
	s-1.6,0.3-1.8,0.3c-0.1,0.1-1.6,1.2-1.6,1.2L73.3,82.5z"/>
<path id="XMLID_27524_" class="st14" d="M73.5,82.3c0.1,0.1,2.2,1.1,7.1,0.8c0.3,0.1,1.4,0.4,1.4,0.8c0.1,0.4-0.8,1-1.1,1.1
	c-0.6,0.3-1.3,0.3-2,0.3c-0.8,0.1-1.6,0.1-2.4,0c-1.8-0.1-3.6-0.6-4.9-1.8c-0.1-0.1-0.7-0.8-0.7-0.8C70.8,82.7,73.5,82.3,73.5,82.3z
	"/>
<path id="XMLID_27450_" class="st15" d="M72.3,83c0.4-0.1,0.8-0.2,1.1-0.4c0.8-0.3,1.5-0.4,2.1-1.1c0.5-0.5,0.8,0,1.2-0.5l1.3,0.7
	c1,1.6,3.3,2.5,5,3.1c1.9,0.7,3.9,1.2,5.9,1.6c1.3,0.3,2.7,0,4,0.1c1.5,0.1,3.1,0.2,4.6,0.2c1.8,0,4.1-0.3,5.2-1.8
	c0.6-0.8,1.1-1.6,1.5-2.5c0.2-0.5,1-2.2-0.2-1.9c-0.8,0.2-1.6,0.5-2.3,0.8c-1.9,0.7-4,0.8-5.9,0.2c-1.1-0.3-2.2-0.7-3.1-1.4
	c-0.7-0.7-1.1-1.7-2-2.2c-0.9-0.5-2.1-0.6-3-1.3c-2.3-1.5-6.2-1-8.6,0.1l-2.2,1c0,0-1.4-0.7-1.4-0.7c-0.7-0.4-1.2-1.1-1.9-1.5
	c-0.8-0.5-2-0.3-3-0.4c-1.7-0.1-3.4,0.5-5,1c-4.9,1.4-10.3-0.1-15.3-0.2c-0.8,0-1.3-0.2-1.5,0.6c-0.1,0.4,0,1.2,0.1,1.6
	c0.8,2.1,3.4,3,5.2,3.9c1.1,0.5,2.1,1.3,3.3,1.6c2.1,0.6,4.4,0.5,6.6,0.4c2.2-0.1,4.4-0.4,6.5-0.8C71.2,83.3,71.8,83.2,72.3,83z"/>
<path id="XMLID_27449_" class="st16" d="M72.2,75.4c-0.3,0-0.5-0.2-0.7-0.4c-0.2-0.4-0.3-0.8,0-1.2c0.4-0.4,0.5-1.4,1.1-1.6
	c0.6-0.2,1.6-0.7,2.3-0.8c1.7-0.3,4.1-0.5,5.7-0.1c1.2,0.3,1.9,1.5,2.8,2.4c0.3,0.3,0.6,0.7,0.6,1.1c0,0.6-0.6,1.1-1.2,1.3
	s-1.3,0.1-1.9,0.2c-0.4,0.1-0.9,0.3-1.3,0.5c-0.8,0.4-1.6,0.6-2.4,0.9c-0.2,0.1-0.4,0.1-0.5,0.1c-0.2,0-0.3-0.1-0.4-0.2
	c-0.3-0.2-0.6-0.4-0.9-0.5c-0.3-0.2-0.6-0.4-0.8-0.6c-0.2-0.2-0.3-0.4-0.4-0.5c-0.5-0.5-1.4-0.4-2.1-0.6"/>
<path id="XMLID_27446_" class="st17" d="M58.6,59c0,0,1.6-3,6.1-2.4c0,0,4.7,0.2,5.7,2.4c0,0,0.7,3.8-1,4.9c0,0-4.7,2-8.6,0.7
	C60.9,64.5,55.4,61.9,58.6,59z"/>
<ellipse id="XMLID_27444_" cx="65.4" cy="60.1" rx="3.4" ry="3.5"/>
<path id="XMLID_27399_" class="st17" d="M95,60.2c0,0-1.6-3-6.1-2.4c0,0-4.7,0.2-5.7,2.4c0,0-0.7,3.8,1,4.9c0,0,4.7,2,8.6,0.7
	C92.8,65.8,98.3,63.1,95,60.2z"/>
<ellipse id="XMLID_27398_" cx="88.3" cy="61.3" rx="3.4" ry="3.5"/>
<ellipse id="XMLID_27397_" class="st12" cx="64.7" cy="58.7" rx="0.7" ry="0.9"/>
<ellipse id="XMLID_27396_" class="st12" cx="87.6" cy="59.7" rx="0.7" ry="0.9"/>
<path id="XMLID_27395_" class="st18" d="M62.1,61"/>
<path id="XMLID_27394_" class="st19" d="M62.1,61c0,0,4.8,4.1,6.6-2c0,0,0.9,3.2-2.1,4.4C66.6,63.4,63.3,64.5,62.1,61z"/>
<path id="XMLID_27392_" class="st19" d="M84.9,62.2c0,0,2.4,2,4.4,1.2c0.9-0.4,1.7-1.3,2.3-3.2c0,0,0.9,3.2-2.1,4.4
	C89.5,64.6,86.1,65.7,84.9,62.2z"/>
<polygon id="XMLID_27390_" class="st20" points="59.1,53.7 60.9,51.9 62,51.9 63.1,51.9 63.8,51.5 64.9,51.5 66.1,51.9 68,51.5 
	69.2,52 70.1,52.6 70.7,53.1 70.4,53.7 69,54.4 64.9,53.8 62.5,54.4 62,54.9 60.9,55.4 58.6,55.6 58.1,55.6 57.5,54.3 "/>
<polygon id="XMLID_19206_" class="st20" points="96.3,55.2 94.6,53.5 93.4,53.5 92.3,53.5 91.7,53 90.6,53 89.4,53.5 87.5,53 
	86.3,53.6 85.3,54.1 84.8,54.7 85.1,55.2 86.4,56 90.6,55.4 93,56 93.5,56.4 94.5,57 96.9,57.1 97.4,57.1 98,55.9 "/>
<path id="XMLID_19203_" class="st21" d="M45.3,51.4c0.8,0.7,1.7,1.3,2.6,1.9c0.1,0,0.1,0.1,0.2,0.1c0.4,0.1,1.5-0.5,1.9-0.6
	c0.8-0.3,1.6-0.5,2.4-0.8c2.2-0.7,4.5-1.4,6.7-1.9c5.4-1.4,11-2.5,16.6-2.4c2.6,0,5.3,0.3,7.7,1.4c0.2,0.1,0.7,0.1,0.9,0.1
	c0.9,0.1,1.7,0.2,2.6,0.4c2.9,0.5,5.7,1.3,8.4,2.4c1.6,0.6,3.2,1.3,4.7,2.2c0.8,0.4,1.6,0.9,2.4,1.4c0.6,0.4,1.2,1.1,1.9,1.3
	c0.9,0.3,2,0.1,2.9,0.1c0.2,0,0.5,0,0.7-0.1c0.7-0.2,1.6-1.5,2.1-2.1c0.4-0.4,0.7-0.7,1-1.1c0.1-0.1,0.2-0.2,0.2-0.4
	c0.1-0.6-1.5-1.6-1.9-2c-1-1.2-1.7-2.7-2.5-4l-0.5-1.8l-1.2-2.2c-0.4-1-0.8-1.8-1.5-2.7c-1.7-2.2-1.9-4.8-2.4-7.4
	c0,0-0.4-2.4-0.5-2.9c-0.1-0.5-1-2.2-1-2.2l-1.1-2.6l-1.8-2.7c0,0-1.1-1.7-1.5-2.2c-1.3-1.3-2.8-2.6-3.7-4.2
	c-1.1-1.9-0.2-3.6,1.1-5.1c0.9-1.1,2.7-2.5,3-4c0.1-0.4,0-0.7,0.1-1.1c0.3-1.4,2-3.2,0.6-4.6c-1.6-1.5-5-0.7-6.8-0.3
	c-5.4,1.1-10.8,2.2-15.8,4.7c-1.2,0.6-2.3,1.2-3.4,1.9c-1.1,0.7-1.7,2-2.4,3c-0.9,1.2-1.8,2.4-2.7,3.5c-0.4,0.5-0.8,1-1.3,1.5
	c-0.8,0.9-1.5,2-2.5,2.8c-1.3,1-2.6,2-3.9,3.1c-0.3,0.2-0.5,0.5-0.7,0.8c-0.2,0.4-0.3,0.8-0.3,1.3c-0.1,1.1,0,2.4-0.3,3.5
	c-0.4,1.3-0.8,2.7-1.2,4c-0.3,1.1-1.4,1.6-2.2,2.3c-0.7,0.6-1.5,1.1-2.2,1.6c-0.5,0.4-1.3,0.7-1.7,1.3c-0.1,0.1-0.1,0.3-0.2,0.4
	c-0.4,1.3-0.9,2.7-0.9,4.1c0,0.9-0.5,2.1-0.7,3c-0.1,0.6-0.4,1.1-0.4,1.7c0,0.8,0.3,1.4-0.1,2.1c-0.3,0.6-0.7,1.1-1,1.7
	c-0.2,0.3-0.9,1.2-0.8,1.7c0.1,0.2,0.2,0.3,0.3,0.4C45.2,51.3,45.2,51.4,45.3,51.4z"/>
</svg>
